<svg width="19" height="19" viewBox="0 0 19 19" fill="none" xmlns="http://www.w3.org/2000/svg">
<path d="M18.5 1V8.81936C17.8244 8.26489 16.9166 8 16 8C14.067 8 12.5 9.567 12.5 11.5C12.5 13.433 14.067 15 16 15C16.9179 15 17.8242 14.7101 18.5 14.1454V18C18.5 18.2761 18.2761 18.5 18 18.5H1C0.723858 18.5 0.5 18.2761 0.5 18V14.0754C0.786069 14.3151 1.09897 14.4989 1.40669 14.6361C1.97758 14.8907 2.56312 15 3 15C4.933 15 6.5 13.433 6.5 11.5C6.5 9.567 4.933 8 3 8C2.31202 8 1.29212 8.23739 0.5 8.907V1C0.5 0.723858 0.723857 0.5 1 0.5H7.14525C6.95321 0.715876 6.77346 0.950727 6.61629 1.19541C6.27062 1.73352 6 2.37278 6 3C6 4.933 7.567 6.5 9.5 6.5C11.433 6.5 13 4.933 13 3C13 2.37278 12.7294 1.73352 12.3837 1.19541C12.2265 0.950727 12.0468 0.715876 11.8547 0.5H18C18.2761 0.5 18.5 0.723858 18.5 1Z" stroke="white"/>
</svg>
