<svg width="27" height="29" viewBox="0 0 27 29" fill="none" xmlns="http://www.w3.org/2000/svg">
<path d="M4.67312 2.26086L5.4187 2.17953V2.17953L4.67312 2.26086ZM6.51938 19.1848L7.26495 19.1035L6.51938 19.1848ZM1 0.25C0.585786 0.25 0.25 0.585786 0.25 1C0.25 1.41421 0.585786 1.75 1 1.75V0.25ZM25.042 21.1957C25.4562 21.1957 25.792 20.8599 25.792 20.4457C25.792 20.0315 25.4562 19.6957 25.042 19.6957V21.1957ZM21.763 14.6737L21.7086 13.9257L21.7066 13.9258L21.763 14.6737ZM3.92755 2.3422L5.40994 15.9308L6.90109 15.7681L5.4187 2.17953L3.92755 2.3422ZM5.40994 15.9308L5.7738 19.2662L7.26495 19.1035L6.90109 15.7681L5.40994 15.9308ZM3.26723 0.25H1V1.75H3.26723V0.25ZM7.92527 21.1957H25.042V19.6957H7.92527V21.1957ZM5.7738 19.2662C5.89357 20.3641 6.82083 21.1957 7.92527 21.1957V19.6957C7.5863 19.6957 7.30171 19.4405 7.26495 19.1035L5.7738 19.2662ZM5.4187 2.17953C5.29892 1.08161 4.37167 0.25 3.26723 0.25V1.75C3.6062 1.75 3.89079 2.00523 3.92755 2.3422L5.4187 2.17953ZM5.5 6.34626H23.6279V4.84626H5.5V6.34626ZM24.2921 7.01049V11.1474H25.7921V7.01049H24.2921ZM21.7066 13.9258L6.09917 15.1016L6.21185 16.5973L21.8193 15.4216L21.7066 13.9258ZM24.2921 11.1474C24.2921 12.6075 23.1648 13.8198 21.7086 13.9257L21.8174 15.4217C24.0577 15.2588 25.7921 13.3937 25.7921 11.1474H24.2921ZM23.6279 6.34626C23.9947 6.34626 24.2921 6.64364 24.2921 7.01049H25.7921C25.7921 5.81522 24.8231 4.84626 23.6279 4.84626V6.34626Z" fill="black"/>
<path d="M25.3533 25.7484C25.3533 26.8963 24.4227 27.8269 23.2748 27.8269C22.1269 27.8269 21.1964 26.8963 21.1964 25.7484C21.1964 24.6005 22.1269 23.6699 23.2748 23.6699C24.4227 23.6699 25.3533 24.6005 25.3533 25.7484ZM8.38252 25.7484C8.38252 26.8963 7.45196 27.8269 6.30405 27.8269C5.15615 27.8269 4.22559 26.8963 4.22559 25.7484C4.22559 24.6005 5.15615 23.6699 6.30405 23.6699C7.45196 23.6699 8.38252 24.6005 8.38252 25.7484Z" stroke="black" stroke-width="1.5"/>
</svg>
