<svg width="19" height="19" viewBox="0 0 19 19" fill="none" xmlns="http://www.w3.org/2000/svg">
<path d="M0.5 5.98607C0.5 5.41791 0.821003 4.89852 1.32918 4.64443L9.27639 0.67082C9.41716 0.600438 9.58284 0.600438 9.72361 0.67082L17.6708 4.64443C18.179 4.89852 18.5 5.41791 18.5 5.98607V18C18.5 18.2761 18.2761 18.5 18 18.5H12.875C12.5989 18.5 12.375 18.2761 12.375 18V12.0833C12.375 11.2549 11.7034 10.5833 10.875 10.5833H8.125C7.29657 10.5833 6.625 11.2549 6.625 12.0833V18C6.625 18.2761 6.40114 18.5 6.125 18.5H1C0.723858 18.5 0.5 18.2761 0.5 18V5.98607Z" stroke="white"/>
</svg>
