<svg width="30" height="30" viewBox="0 0 30 30" fill="none" xmlns="http://www.w3.org/2000/svg">
<circle cx="15" cy="15" r="14.5" stroke="#7D7D7D"/>
<path d="M15.0102 22.5984C14.7702 22.5984 14.5768 22.5318 14.4302 22.3984C14.2968 22.2518 14.2302 22.0584 14.2302 21.8184V12.4384C14.2302 12.1984 14.2968 12.0118 14.4302 11.8784C14.5768 11.7318 14.7702 11.6584 15.0102 11.6584C15.2368 11.6584 15.4168 11.7318 15.5502 11.8784C15.6968 12.0118 15.7702 12.1984 15.7702 12.4384V21.8184C15.7702 22.0584 15.6968 22.2518 15.5502 22.3984C15.4168 22.5318 15.2368 22.5984 15.0102 22.5984ZM14.9902 9.57844C14.6968 9.57844 14.4435 9.47177 14.2302 9.25844C14.0168 9.0451 13.9102 8.7851 13.9102 8.47844C13.9102 8.1451 14.0168 7.8851 14.2302 7.69844C14.4568 7.49844 14.7168 7.39844 15.0102 7.39844C15.2902 7.39844 15.5368 7.49844 15.7502 7.69844C15.9768 7.8851 16.0902 8.1451 16.0902 8.47844C16.0902 8.7851 15.9835 9.0451 15.7702 9.25844C15.5568 9.47177 15.2968 9.57844 14.9902 9.57844Z" fill="#7D7D7D"/>
</svg>
