<svg width="32" height="26" viewBox="0 0 32 26" fill="none" xmlns="http://www.w3.org/2000/svg">
<path d="M27.2 0H4.8C3.52698 0 2.30605 0.513631 1.40589 1.42786C0.505727 2.34208 0 3.58208 0 4.875V21.125C0 22.4179 0.505727 23.6579 1.40589 24.5721C2.30605 25.4864 3.52698 26 4.8 26H27.2C28.473 26 29.694 25.4864 30.5941 24.5721C31.4943 23.6579 32 22.4179 32 21.125V4.875C32 3.58208 31.4943 2.34208 30.5941 1.42786C29.694 0.513631 28.473 0 27.2 0ZM26.544 3.25L17.136 12.805C16.9873 12.9573 16.8103 13.0782 16.6153 13.1607C16.4204 13.2432 16.2112 13.2857 16 13.2857C15.7888 13.2857 15.5796 13.2432 15.3847 13.1607C15.1897 13.0782 15.0127 12.9573 14.864 12.805L5.456 3.25H26.544ZM28.8 21.125C28.8 21.5559 28.6314 21.9693 28.3314 22.2741C28.0313 22.5788 27.6243 22.75 27.2 22.75H4.8C4.37568 22.75 3.9687 22.5788 3.66861 22.2741C3.36858 21.9693 3.2 21.5559 3.2 21.125V5.54125L12.608 15.0962C13.508 16.0092 14.728 16.522 16 16.522C17.272 16.522 18.492 16.0092 19.392 15.0962L28.8 5.54125V21.125Z" fill="black"/>
</svg>
