<svg width="17" height="14" viewBox="0 0 17 14" fill="none" xmlns="http://www.w3.org/2000/svg">
<path d="M14.2164 0H2.66641C2.01 0 1.38046 0.260766 0.916317 0.724911C0.452172 1.18906 0.191406 1.8186 0.191406 2.475V10.725C0.191406 11.3814 0.452172 12.0109 0.916317 12.4751C1.38046 12.9392 2.01 13.2 2.66641 13.2H14.2164C14.8728 13.2 15.5024 12.9392 15.9665 12.4751C16.4306 12.0109 16.6914 11.3814 16.6914 10.725V2.475C16.6914 1.8186 16.4306 1.18906 15.9665 0.724911C15.5024 0.260766 14.8728 0 14.2164 0ZM13.8782 1.65L9.02716 6.501C8.95047 6.57832 8.85922 6.6397 8.75867 6.68158C8.65815 6.72345 8.55031 6.74503 8.44141 6.74503C8.33251 6.74503 8.22466 6.72345 8.12415 6.68158C8.02359 6.6397 7.93235 6.57832 7.85566 6.501L3.00466 1.65H13.8782ZM15.0414 10.725C15.0414 10.9438 14.9545 11.1536 14.7998 11.3084C14.645 11.4631 14.4352 11.55 14.2164 11.55H2.66641C2.44762 11.55 2.23777 11.4631 2.08303 11.3084C1.92833 11.1536 1.84141 10.9438 1.84141 10.725V2.81325L6.69241 7.66425C7.15649 8.12773 7.78553 8.38807 8.44141 8.38807C9.09728 8.38807 9.72633 8.12773 10.1904 7.66425L15.0414 2.81325V10.725Z" fill="black"/>
</svg>
