<svg width="30" height="29" viewBox="0 0 30 29" fill="none" xmlns="http://www.w3.org/2000/svg">
<path d="M5.39797 1.69056C6.31871 0.769815 7.81153 0.769815 8.73227 1.69056L11.3848 4.34312C12.3876 5.3459 12.2846 7.00066 11.1652 7.87133L10.3266 8.52354C9.05471 9.5128 8.93765 11.393 10.077 12.5323L16.8845 19.3398C18.0239 20.4792 19.9041 20.3622 20.8933 19.0903L21.5455 18.2517C22.4162 17.1323 24.071 17.0293 25.0738 18.032L27.7263 20.6846C28.6471 21.6053 28.6471 23.0982 27.7263 24.0189L25.3753 26.3699C24.1544 27.5908 22.3657 28.0502 20.7076 27.5688C11.6063 24.9265 4.49033 17.8105 1.84803 8.7093C1.36664 7.05116 1.82609 5.26244 3.04698 4.04155L5.39797 1.69056Z" stroke="black" stroke-width="2"/>
</svg>
