<svg width="18" height="18" viewBox="0 0 18 18" fill="none" xmlns="http://www.w3.org/2000/svg">
<path d="M3.17048 1.29289C3.561 0.902369 4.19417 0.902369 4.58469 1.29289L6.16468 2.87288C6.59 3.2982 6.5463 4.00005 6.07151 4.36934L5.57202 4.75783C4.62244 5.4964 4.53504 6.9001 5.38569 7.75075L9.44055 11.8056C10.2912 12.6563 11.6949 12.5689 12.4335 11.6193L12.822 11.1198C13.1912 10.645 13.8931 10.6013 14.3184 11.0266L15.8984 12.6066C16.2889 12.9971 16.2889 13.6303 15.8984 14.0208L14.498 15.4212C13.8751 16.0441 12.9624 16.2785 12.1164 16.0329C6.82827 14.4977 2.69363 10.363 1.15837 5.07491C0.912749 4.22887 1.14718 3.3162 1.77012 2.69325L3.17048 1.29289Z" stroke="black" stroke-width="2"/>
</svg>
