<svg width="36" height="38" viewBox="0 0 36 38" fill="none" xmlns="http://www.w3.org/2000/svg">
<path d="M13.3148 34.9521C15.0903 35.9464 16.8391 36.4458 18.4681 36.4458C19.8318 36.4453 21.1115 36.0951 22.2506 35.392L26.4489 32.8022C26.6003 32.7089 26.7084 32.5597 26.7495 32.3864C26.7906 32.2135 26.7607 32.0312 26.6673 31.8798L23.0282 25.9819C22.9349 25.8309 22.7852 25.7228 22.6124 25.6817C22.4382 25.6411 22.2568 25.6706 22.1059 25.7639L17.8758 28.3747C17.2255 28.7759 16.3911 28.9041 15.5884 28.7276C14.7857 28.5507 14.1005 28.0853 13.7083 27.4492L7.95913 18.132C7.12787 16.7848 7.54685 15.0124 8.89313 14.1811L8.89358 14.1807L13.284 11.4702C13.5989 11.2759 13.6963 10.8632 13.502 10.5483L9.86242 4.65171C9.66812 4.33681 9.25494 4.23809 8.94048 4.43329L4.55367 7.14105C-0.335665 10.1588 -0.16414 18.0806 4.97176 26.4058C7.32619 30.2231 10.2894 33.2583 13.3148 34.9521ZM5.25807 8.28097L9.07449 5.92564L12.0105 10.6819L8.19006 13.0403C8.18917 13.0408 8.18828 13.0417 8.18828 13.0417C6.21486 14.2615 5.60023 16.8599 6.81921 18.8351L12.5684 28.1519C13.1495 29.0948 14.1456 29.7813 15.3007 30.0359C16.4402 30.2856 17.636 30.0967 18.5798 29.5142L22.2394 27.2554L25.175 32.0125L21.5466 34.2508C18.8969 35.8856 15.9636 34.8985 13.9696 33.7822C11.1399 32.1974 8.34908 29.328 6.11212 25.7018C1.39074 18.0485 1.03965 10.8846 5.25807 8.28097Z" fill="black" stroke="black" stroke-width="1.5"/>
<path d="M17.8102 11.6865C19.9784 11.8147 21.8973 12.9287 23.0757 14.7436C24.2022 16.4731 24.4733 18.5926 23.819 20.5589C23.7019 20.91 23.8918 21.2896 24.2428 21.4058C24.313 21.4295 24.384 21.4402 24.4546 21.4402C24.7355 21.4402 24.9968 21.2628 25.0902 20.9819C25.8746 18.6261 25.5494 16.0854 24.1991 14.0128C22.8081 11.8697 20.4488 10.4997 17.8893 10.3483C17.5163 10.3327 17.2028 10.6083 17.1809 10.9777C17.159 11.3475 17.4408 11.6646 17.8102 11.6865Z" fill="black" stroke="black" stroke-width="1.5"/>
<path d="M18.7489 6.71253C22.2598 7.11588 25.3763 9.0424 27.2992 11.9972C29.1623 14.8617 29.6903 18.3887 28.7473 21.674C28.6451 22.03 28.8505 22.4007 29.2061 22.5026C29.2682 22.5204 29.3298 22.5289 29.3915 22.5289C29.6822 22.5289 29.9507 22.3373 30.0347 22.0438C31.0848 18.3851 30.497 14.4566 28.4222 11.2664C26.2808 7.97573 22.811 5.83079 18.9017 5.38143C18.5412 5.339 18.2022 5.60298 18.1598 5.9706C18.1173 6.33821 18.3809 6.67009 18.7489 6.71253Z" fill="black" stroke="black" stroke-width="1.5"/>
<path d="M19.6658 2.33307C24.3287 2.9812 28.4748 5.61659 31.0414 9.56388C33.5557 13.4263 34.3097 18.1968 33.1108 22.652C33.0143 23.0093 33.2265 23.3769 33.5839 23.473C33.6419 23.4886 33.7009 23.4962 33.7585 23.4962C34.0538 23.4962 34.3249 23.2997 34.4049 23.0004C35.7029 18.1781 34.8864 13.014 32.1648 8.83312C29.3864 4.56065 24.8982 1.70772 19.8512 1.00599C19.4863 0.957303 19.1459 1.21057 19.0954 1.57729C19.0441 1.94357 19.2996 2.28215 19.6658 2.33307Z" fill="black" stroke="black" stroke-width="1.5"/>
</svg>
