<svg width="21" height="7" viewBox="0 0 21 7" fill="none" xmlns="http://www.w3.org/2000/svg">
<rect x="0.5" y="0.5" width="20" height="6" rx="1.5" stroke="black"/>
<rect x="16.5" y="2.5" width="2" height="2" rx="0.5" stroke="black"/>
<path d="M2.5 3C2.5 2.72386 2.72386 2.5 3 2.5H4.5V4.5H3C2.72386 4.5 2.5 4.27614 2.5 4V3Z" stroke="black"/>
<path d="M8.5 3C8.5 2.72386 8.27614 2.5 8 2.5H6.5V4.5H8C8.27614 4.5 8.5 4.27614 8.5 4V3Z" stroke="black"/>
<rect x="4.5" y="2.5" width="2" height="2" stroke="black"/>
<circle cx="10.5" cy="3.5" r="0.5" fill="black"/>
<circle cx="12.5" cy="3.5" r="0.5" fill="black"/>
<circle cx="14.5" cy="3.5" r="0.5" fill="black"/>
</svg>
