<svg width="21" height="15" viewBox="0 0 21 15" fill="none" xmlns="http://www.w3.org/2000/svg">
<path d="M2.5 7V6.5H2C1.17157 6.5 0.5 5.82843 0.5 5V2C0.5 1.17157 1.17157 0.5 2 0.5H19C19.8284 0.5 20.5 1.17157 20.5 2V5C20.5 5.82843 19.8284 6.5 19 6.5H18.5V7V8V8.5H19C19.8284 8.5 20.5 9.17157 20.5 10V13C20.5 13.8284 19.8284 14.5 19 14.5H2C1.17157 14.5 0.5 13.8284 0.5 13V10C0.5 9.17157 1.17157 8.5 2 8.5H2.5V8L2.5 7Z" stroke="black"/>
<path d="M2.5 11C2.5 10.7239 2.72386 10.5 3 10.5H4.5V12.5H3C2.72386 12.5 2.5 12.2761 2.5 12V11Z" stroke="black"/>
<path d="M18.5 11C18.5 10.7239 18.2761 10.5 18 10.5H16.5V12.5H18C18.2761 12.5 18.5 12.2761 18.5 12V11Z" stroke="black"/>
<path d="M4.5 10.5H7.5V12.5H4.5V10.5Z" stroke="black"/>
<path d="M7.5 10.5H10.5V12.5H7.5V10.5Z" stroke="black"/>
<path d="M10.5 10.5H13.5V12.5H10.5V10.5Z" stroke="black"/>
<path d="M13.5 10.5H16.5V12.5H13.5V10.5Z" stroke="black"/>
<rect x="2.5" y="2.5" width="2" height="2" rx="0.5" stroke="black"/>
<path d="M3 6.5H18.5" stroke="black" stroke-linecap="round"/>
<path d="M2.5 8.5H18.5" stroke="black" stroke-linecap="round"/>
<circle cx="18.5" cy="2.5" r="0.5" fill="black"/>
<path d="M15 2.5C15 2.77614 14.7761 3 14.5 3C14.2239 3 14 2.77614 14 2.5C14 2.22386 14.2239 2 14.5 2C14.7761 2 15 2.22386 15 2.5Z" fill="black"/>
<path d="M17 2.5C17 2.77614 16.7761 3 16.5 3C16.2239 3 16 2.77614 16 2.5C16 2.22386 16.2239 2 16.5 2C16.7761 2 17 2.22386 17 2.5Z" fill="black"/>
<path d="M12 2.5C12 2.77614 11.7761 3 11.5 3C11.2239 3 11 2.77614 11 2.5C11 2.22386 11.2239 2 11.5 2C11.7761 2 12 2.22386 12 2.5Z" fill="black"/>
<path d="M10 2.5C10 2.77614 9.77614 3 9.5 3C9.22386 3 9 2.77614 9 2.5C9 2.22386 9.22386 2 9.5 2C9.77614 2 10 2.22386 10 2.5Z" fill="black"/>
<circle cx="7.5" cy="2.5" r="0.5" fill="black"/>
</svg>
