<svg width="32" height="27" viewBox="0 0 32 27" fill="none" xmlns="http://www.w3.org/2000/svg">
<path d="M29.2719 0.238344C29.2719 0.238344 32.2321 -0.930322 31.9854 1.90798C31.9032 3.07671 31.1631 7.16721 30.5875 11.5916L28.614 24.698C28.614 24.698 28.4496 26.618 26.9695 26.9519C25.4893 27.2858 23.2692 25.7832 22.858 25.4493C22.5291 25.1989 16.6909 21.4422 14.6351 19.6057C14.0595 19.1048 13.4017 18.103 14.7173 16.9343L23.3514 8.58638C24.3382 7.58464 25.3249 5.24718 21.2134 8.08548L9.70145 16.0161C9.70145 16.0161 8.38574 16.8508 5.91893 16.0995L0.574039 14.43C0.574039 14.43 -1.39946 13.1778 1.97193 11.9255C10.1948 8.00196 20.309 3.99492 29.2719 0.238344Z" fill="black"/>
</svg>
