<svg width="29" height="24" viewBox="0 0 29 24" fill="none" xmlns="http://www.w3.org/2000/svg">
<path d="M27.5308 1.54952L27.5316 1.54098C27.5624 1.20159 27.5069 1.07345 27.4903 1.04466C27.4768 1.03623 27.4302 1.01366 27.3156 1.00396C27.1438 0.98942 26.9336 1.01603 26.7391 1.06046C26.6477 1.08133 26.5716 1.10338 26.5205 1.11947C26.4952 1.12744 26.4767 1.13373 26.4662 1.13736L26.4641 1.13812C24.5076 1.92413 22.4944 2.72118 20.4626 3.52559C14.1676 6.01788 7.69391 8.58089 2.1747 11.1054L2.13515 11.1235L2.09418 11.1381C1.69425 11.2805 1.42569 11.4098 1.24912 11.5141L5.56244 12.8057C6.51365 13.0829 7.20191 13.0568 7.62076 12.9844C7.83292 12.9478 7.98267 12.8981 8.06844 12.8644C8.10176 12.8512 8.12552 12.8405 8.13959 12.8337L18.3682 6.07893C18.3682 6.07891 18.3683 6.07889 18.3683 6.07887C19.3031 5.46024 20.024 5.07068 20.5711 4.88739C20.8357 4.79875 21.1588 4.72334 21.488 4.76349C21.8774 4.81098 22.2999 5.03417 22.4996 5.50614C22.6584 5.88147 22.5964 6.24254 22.5453 6.43987C22.4873 6.66437 22.3902 6.8759 22.2914 7.05488C22.0933 7.41386 21.8124 7.77744 21.5244 8.05778L21.5156 8.06627L21.5067 8.07455L13.806 15.2118L13.7906 15.2261L13.7746 15.2397C13.5634 15.4195 13.4866 15.5465 13.4601 15.6056C13.4395 15.6515 13.4429 15.6682 13.4438 15.6725C13.4439 15.6727 13.4439 15.6729 13.444 15.6731C13.4463 15.6873 13.4572 15.7275 13.5031 15.7933C13.5492 15.8595 13.6156 15.9294 13.6935 15.9944L13.7035 16.0027L13.7034 16.0028C14.5626 16.7385 16.2666 17.8991 17.8451 18.9322C18.6238 19.4419 19.3555 19.9099 19.9125 20.265C20.003 20.3227 20.0906 20.3785 20.1742 20.4317C20.5773 20.6884 20.8876 20.8859 20.9763 20.9506L20.9889 20.9598L21.0012 20.9694C21.123 21.0642 21.6426 21.4161 22.2769 21.7047C22.9577 22.0144 23.5221 22.135 23.8425 22.0657C24.0708 22.0164 24.2381 21.8547 24.3711 21.5606C24.4353 21.4184 24.4759 21.2752 24.4998 21.1649C24.5115 21.1112 24.5184 21.0691 24.5221 21.0437C24.5235 21.0334 24.5245 21.0261 24.525 21.0221L24.5251 21.0206L24.5252 21.0199M27.5308 1.54952L24.5253 21.0193C24.5254 21.0181 24.5254 21.0184 24.5252 21.0199M27.5308 1.54952L27.5302 1.55806C27.4978 1.99908 27.3273 3.05226 27.0852 4.54729L27.082 4.56724C26.8441 6.03619 26.5495 7.8638 26.2912 9.76565L24.5327 20.9609L24.5275 20.9939L24.5252 21.0199M27.5308 1.54952L24.5252 21.0199M0.961824 11.413C0.961988 11.413 0.963451 11.4149 0.965721 11.4187C0.962795 11.4149 0.961659 11.413 0.961824 11.413ZM27.4858 1.03802C27.4859 1.03795 27.4869 1.03913 27.4885 1.04176C27.4866 1.03941 27.4857 1.0381 27.4858 1.03802ZM27.4947 1.04792C27.4947 1.04796 27.494 1.04745 27.4927 1.04626C27.4942 1.04729 27.4948 1.04788 27.4947 1.04792Z" stroke="black" stroke-width="2"/>
</svg>
