<svg width="17" height="14" viewBox="0 0 17 14" fill="none" xmlns="http://www.w3.org/2000/svg">
<path d="M15.9182 1.05252C15.9336 1.04765 15.9553 1.04124 15.9813 1.03455C15.9462 1.33208 15.8569 1.88481 15.7321 2.65582C15.5906 3.52954 15.4146 4.62119 15.2601 5.75822L14.2133 12.4225L14.2081 12.4555L14.2063 12.4766C14.2063 12.4766 14.2063 12.4766 14.2063 12.4767C14.2052 12.4837 14.2027 12.4994 14.198 12.521C14.188 12.5673 14.1715 12.6239 14.148 12.6759C14.1305 12.7147 14.115 12.7377 14.1058 12.7493C14.0972 12.7499 14.0832 12.7504 14.063 12.7495C14.0243 12.7477 13.9716 12.741 13.9046 12.726C13.7674 12.6951 13.6068 12.6377 13.4366 12.5602C13.2691 12.484 13.1116 12.3973 12.9842 12.3201C12.921 12.2819 12.8676 12.2474 12.8266 12.2198C12.8061 12.206 12.7896 12.1945 12.7771 12.1856L12.7627 12.175C12.7591 12.1724 12.7576 12.1712 12.7576 12.1712L12.7454 12.1617L12.7328 12.1525C12.6684 12.1055 12.4671 11.9774 12.2284 11.8255C12.1796 11.7944 12.1292 11.7624 12.0782 11.7298C11.7468 11.5186 11.3126 11.2408 10.8508 10.9385C9.9745 10.365 9.05719 9.74083 8.53913 9.3196L13.0852 5.10613L13.0942 5.09785L13.1029 5.08936C13.302 4.8956 13.4939 4.64745 13.6318 4.39761C13.7005 4.27319 13.7746 4.11464 13.8205 3.93715C13.8594 3.78683 13.92 3.4668 13.7742 3.12213C13.5874 2.68083 13.1922 2.47794 12.8482 2.43597C12.681 2.41558 12.5222 2.43013 12.3832 2.45784C13.5738 1.98646 14.7545 1.51888 15.9043 1.05701C15.9078 1.05584 15.9125 1.05431 15.9182 1.05252ZM12.7867 4.41639C12.7866 4.41655 12.7833 4.4175 12.7771 4.41874C12.7837 4.41686 12.7868 4.41623 12.7867 4.41639ZM11.5057 2.80534C11.2679 2.93309 11.006 3.09299 10.7182 3.28339C10.7181 3.28349 10.7179 3.28358 10.7178 3.28368L4.65502 7.28743C4.62634 7.29853 4.56463 7.3194 4.47047 7.33566C4.28138 7.3683 3.93411 7.38717 3.42776 7.23983L1.90258 6.78313C4.83762 5.4587 8.1896 4.11917 11.5057 2.80534ZM16.245 1.00185C16.2464 1.00203 16.247 1.00216 16.247 1.00217L16.245 1.00185ZM15.9981 0.763878C15.9975 0.761629 15.9974 0.760426 15.9974 0.760386C15.9974 0.760346 15.9977 0.761471 15.9981 0.763878Z" stroke="black" stroke-width="2"/>
</svg>
