<svg width="19" height="19" viewBox="0 0 19 19" fill="none" xmlns="http://www.w3.org/2000/svg">
<path fill-rule="evenodd" clip-rule="evenodd" d="M9.06946 0C11.4754 0.000891 13.7337 0.93753 15.4317 2.63762C17.1299 4.33772 18.0645 6.59719 18.063 9.00072C18.0609 13.9593 14.026 17.9942 9.06916 17.9942H9.06556C7.56053 17.9936 6.08131 17.6161 4.76774 16.8995L0 18.15L1.27604 13.4894C0.489159 12.1257 0.0750421 10.5784 0.0756361 8.99323C0.0774181 4.03432 4.11233 0 9.06946 0ZM9.06675 16.4751H9.06975C13.1899 16.4751 16.5432 13.1218 16.5447 8.99953C16.5453 7.00204 15.7687 5.12398 14.3573 3.71108C12.9459 2.29819 11.0691 1.51942 9.07246 1.51883C4.94931 1.51883 1.59565 4.87189 1.59416 8.99352C1.59354 10.4061 1.98878 11.7815 2.73695 12.9717L2.91463 13.2547L2.15955 16.0133L4.98894 15.2711L5.26201 15.4331C6.40962 16.1141 7.72527 16.4745 9.06675 16.4751ZM11.6342 10.1454C11.8404 10.2204 12.945 10.7639 13.1698 10.8764C13.2133 10.8982 13.2539 10.9178 13.2916 10.936C13.449 11.0121 13.5552 11.0635 13.6005 11.1393C13.6566 11.2329 13.6566 11.6831 13.4693 12.208C13.2821 12.7329 12.3844 13.2118 11.9526 13.2763C11.5652 13.3342 11.0754 13.3583 10.537 13.1872C10.2105 13.0837 9.79216 12.9456 9.25587 12.7139C7.14829 11.8038 5.72425 9.76081 5.45599 9.37599C5.43731 9.3492 5.42424 9.33042 5.41695 9.32065L5.41609 9.31953C5.30046 9.16568 4.49922 8.09952 4.49922 6.99607C4.49922 5.96138 5.00725 5.41903 5.24142 5.16902C5.25759 5.15173 5.27248 5.13586 5.28578 5.1213C5.49196 4.89621 5.73533 4.84011 5.88509 4.84011C6.03484 4.84011 6.18489 4.8413 6.31574 4.8479C6.33191 4.84872 6.34874 4.84862 6.36613 4.84849C6.49714 4.8477 6.66032 4.84674 6.82143 5.23354C6.8836 5.38293 6.97471 5.60472 7.07074 5.83846C7.26389 6.30851 7.47688 6.82694 7.51436 6.90211C7.5705 7.01464 7.60799 7.14582 7.53298 7.29587C7.52156 7.31861 7.51103 7.34009 7.50097 7.36062C7.4448 7.47503 7.40338 7.55947 7.30818 7.67068C7.27082 7.71434 7.23221 7.7614 7.19357 7.80846C7.11612 7.90277 7.03864 7.99715 6.97118 8.06441C6.85862 8.17638 6.7416 8.29792 6.87274 8.52298C7.00389 8.74777 7.45493 9.48361 8.12298 10.0796C8.84087 10.7202 9.46493 10.9908 9.7814 11.1281C9.8433 11.155 9.89343 11.1767 9.93019 11.1951C10.1547 11.3076 10.2858 11.289 10.417 11.139C10.5481 10.9889 10.9788 10.483 11.1285 10.2579C11.2783 10.0328 11.4283 10.0703 11.6342 10.1454Z" fill="black"/>
</svg>
