<svg width="35" height="35" viewBox="0 0 35 35" fill="none" xmlns="http://www.w3.org/2000/svg">
<path fill-rule="evenodd" clip-rule="evenodd" d="M17.5736 0C22.2355 0.00171818 26.6113 1.80791 29.9014 5.08633C33.1921 8.36475 35.0029 12.7219 35 17.3568C34.9959 26.9188 27.1776 34.6996 17.573 34.6996H17.566C14.6498 34.6985 11.7835 33.9705 9.23828 32.5885L0 35L2.47255 26.0126C0.947826 23.3829 0.145406 20.3991 0.146557 17.3423C0.15001 7.77967 7.96831 0 17.5736 0ZM17.5683 31.7702H17.5741C25.5575 31.7702 32.0552 25.3037 32.0582 17.3545C32.0593 13.5026 30.5544 9.88095 27.8196 7.15635C25.0848 4.43176 21.4481 2.93001 17.5794 2.92886C9.5901 2.92886 3.09183 9.39483 3.08895 17.3429C3.08774 20.0669 3.85359 22.7191 5.3033 25.0143L5.64757 25.5601L4.18449 30.8795L9.66689 29.4484L10.196 29.7609C12.4197 31.074 14.969 31.7691 17.5683 31.7702ZM22.5431 19.564C22.9427 19.7087 25.0832 20.7568 25.5187 20.9738C25.6029 21.0157 25.6816 21.0536 25.7547 21.0888C26.0596 21.2355 26.2655 21.3346 26.3532 21.4807C26.4619 21.6613 26.4619 22.5294 26.099 23.5415C25.7362 24.5537 23.9969 25.4773 23.1601 25.6017C22.4094 25.7134 21.4604 25.7597 20.4172 25.4299C19.7845 25.2302 18.9739 24.964 17.9348 24.5172C13.851 22.7622 11.0917 18.8225 10.5719 18.0804C10.5357 18.0288 10.5104 17.9925 10.4962 17.9737L10.4946 17.9715C10.2705 17.6749 8.71798 15.6189 8.71798 13.491C8.71798 11.4958 9.70238 10.4499 10.1561 9.96781C10.1875 9.93446 10.2163 9.90385 10.2421 9.87579C10.6416 9.44173 11.1132 9.33354 11.4033 9.33354C11.6935 9.33354 11.9842 9.33584 12.2378 9.34856C12.2691 9.35015 12.3017 9.34997 12.3354 9.34971C12.5893 9.34818 12.9055 9.34634 13.2176 10.0922C13.3381 10.3803 13.5147 10.808 13.7007 11.2587C14.075 12.1652 14.4877 13.1649 14.5603 13.3099C14.6691 13.5269 14.7417 13.7798 14.5964 14.0692C14.5743 14.113 14.5539 14.1544 14.5344 14.194C14.4255 14.4147 14.3453 14.5775 14.1608 14.792C14.0884 14.8761 14.0136 14.9669 13.9387 15.0576C13.7887 15.2395 13.6385 15.4215 13.5078 15.5512C13.2897 15.7671 13.063 16.0015 13.3171 16.4355C13.5712 16.869 14.4452 18.2879 15.7396 19.4373C17.1306 20.6726 18.3399 21.1945 18.9531 21.4592C19.073 21.5109 19.1702 21.5529 19.2414 21.5884C19.6764 21.8054 19.9305 21.7695 20.1846 21.4801C20.4387 21.1908 21.2732 20.2151 21.5634 19.781C21.8535 19.347 22.1443 19.4193 22.5431 19.564Z" fill="black"/>
</svg>
